<?xml version="1.0" encoding="UTF-8" standalone="no"?>
<!-- Created with Inkscape (http://www.inkscape.org/) -->

<svg
   width="331.78751mm"
   height="331.78751mm"
   viewBox="0 0 331.78751 331.78751"
   version="1.1"
   id="svg1"
   xml:space="preserve"
   sodipodi:docname="Urbania_logo_text.svg"
   inkscape:version="1.4.2 (f4327f4, 2025-05-13)"
   xmlns:inkscape="http://www.inkscape.org/namespaces/inkscape"
   xmlns:sodipodi="http://sodipodi.sourceforge.net/DTD/sodipodi-0.dtd"
   xmlns:xlink="http://www.w3.org/1999/xlink"
   xmlns="http://www.w3.org/2000/svg"
   xmlns:svg="http://www.w3.org/2000/svg"><sodipodi:namedview
     id="namedview1"
     pagecolor="#505050"
     bordercolor="#eeeeee"
     borderopacity="1"
     inkscape:showpageshadow="0"
     inkscape:pageopacity="0"
     inkscape:pagecheckerboard="0"
     inkscape:deskcolor="#505050"
     inkscape:document-units="mm"
     showguides="false"
     inkscape:zoom="0.4090909"
     inkscape:cx="464.44445"
     inkscape:cy="-160.11111"
     inkscape:window-width="1366"
     inkscape:window-height="715"
     inkscape:window-x="-8"
     inkscape:window-y="-8"
     inkscape:window-maximized="1"
     inkscape:current-layer="layer1" /><defs
     id="defs1"><linearGradient
       id="linearGradient44"
       inkscape:collect="always"><stop
         style="stop-color:#24601a;stop-opacity:1;"
         offset="0"
         id="stop44" /><stop
         style="stop-color:#6e9e3a;stop-opacity:1;"
         offset="1"
         id="stop45" /></linearGradient><rect
       x="1454.4187"
       y="334.20686"
       width="485.83774"
       height="451.79816"
       id="rect3" /><rect
       x="1358.489"
       y="328.01784"
       width="649.84666"
       height="618.90158"
       id="rect2" /><linearGradient
       inkscape:collect="always"
       xlink:href="#linearGradient44"
       id="linearGradient45"
       x1="-265.07492"
       y1="184.64975"
       x2="-263.7814"
       y2="-65.646088"
       gradientUnits="userSpaceOnUse" /></defs><g
     inkscape:label="Capa 1"
     inkscape:groupmode="layer"
     id="layer1"
     transform="translate(436.46613,85.695625)"><path
       style="fill:url(#linearGradient45);fill-opacity:1;stroke-width:1.90744"
       d="m -253.27628,89.573646 c -0.50286,-0.29344 -0.63097,9.169328 -0.63097,46.619384 v 46.98834 l 1.89291,-0.33589 c 3.30577,-0.58662 8.85817,-2.96703 12.24318,-5.24826 3.82311,-2.57648 8.85537,-7.59029 10.44432,-10.4066 2.75103,-4.87603 3.24047,-5.90965 4.55632,-9.62939 l 1.39629,-3.94963 0.154,-22.45909 0.15451,-22.45858 -1.66863,-0.97048 c -0.91752,-0.53398 -7.57239,-4.75343 -14.78928,-9.376179 -7.21691,-4.62274 -13.40569,-8.571145 -13.75265,-8.773625 z m 7.28741,20.996094 h 6.64663 v 9.8454 h -6.64663 z m 6.99647,0 h 6.64559 v 9.8454 h -6.64559 z m -6.99647,10.0097 h 1.66398 v 5.24981 h -1.66398 z m 1.99678,0 h 1.66295 v 5.24981 h -1.66295 z m 1.99626,0 h 1.66398 v 5.24981 h -1.66398 z m 1.99626,0 h 1.66347 v 5.24981 h -1.66347 z m 1.99678,0 h 1.66295 v 5.24981 h -1.66295 z m 1.99626,0 h 1.66346 v 5.24981 h -1.66346 z m 1.99574,0 h 1.66398 v 5.24981 h -1.66398 z m -11.97808,8.31939 h 6.64663 v 9.84539 h -6.64663 z m 6.99647,0 h 6.64559 v 9.84539 h -6.64559 z m -6.99647,10.00869 h 1.66398 v 5.25084 h -1.66398 z m 1.99678,0 h 1.66295 v 5.25084 h -1.66295 z m 1.99626,0 h 1.66398 v 5.25084 h -1.66398 z m 1.99626,0 h 1.66347 v 5.25084 h -1.66347 z m 1.99678,0 h 1.66295 v 5.25084 h -1.66295 z m 1.99626,0 h 1.66346 v 5.25084 h -1.66346 z m 1.99574,0 h 1.66398 v 5.25084 h -1.66398 z m -11.97808,8.16694 h 6.64663 v 9.84488 h -6.64663 z m 6.99647,0 h 6.64559 v 9.84488 h -6.64559 z m -6.99647,10.00869 h 1.66398 v 5.25085 h -1.66398 z m 1.99678,0 h 1.66295 v 5.25085 h -1.66295 z m 1.99626,0 h 1.66398 v 5.25085 h -1.66398 z m 1.99626,0 h 1.66347 v 5.25085 h -1.66347 z m 1.99678,0 h 1.66295 v 5.25085 h -1.66295 z m 1.99626,0 h 1.66346 v 5.25085 h -1.66346 z m 1.99574,0 h 1.66398 v 5.25085 h -1.66398 z"
       id="path46"
       inkscape:label="build3" /><path
       style="fill:url(#linearGradient45);fill-opacity:1;stroke-width:1.90744"
       d="m -279.33619,11.686512 c -0.10911,-0.109205 -8.56958,4.768459 -18.80092,10.839648 l -18.60248,11.039119 -0.12816,58.404704 c -0.13867,63.182697 -0.19829,61.593847 2.56419,68.433037 2.72326,6.7421 7.5037,12.87552 13.20539,16.94418 3.80146,2.71265 6.59583,3.99715 11.48096,5.2772 2.01482,0.52793 5.19622,0.97279 7.06985,0.98805 l 3.40651,0.0274 0.0336,-12.99559 c 0.1072,-41.56295 -0.0616,-158.790475 -0.22893,-158.957738 z m -32.56648,26.88308 h 9.53688 v 15.259534 h -9.53688 z m 14.45338,0 h 6.64662 v 9.845394 h -6.64662 z m 6.99544,0 h 6.64662 v 9.845394 h -6.64662 z m -6.99544,10.008692 h 1.66398 v 5.250842 h -1.66398 z m 1.99626,0 h 1.66346 v 5.250842 h -1.66346 z m 1.99678,0 h 1.66398 v 5.250842 h -1.66398 z m 1.99626,0 h 1.66346 v 5.250842 h -1.66346 z m 1.99574,0 h 1.66398 v 5.250842 h -1.66398 z m 1.99729,0 h 1.66347 v 5.250842 h -1.66347 z m 1.99575,0 h 1.66398 v 5.250842 h -1.66398 z m -26.43146,8.319354 h 9.53688 v 15.259534 h -9.53688 z m 14.45338,10e-4 h 6.64662 v 9.844877 h -6.64662 z m 6.99544,0 h 6.64662 v 9.84436 h -6.64662 z m -6.99544,10.008691 h 1.66398 v 5.250843 h -1.66398 z m 1.99626,0 h 1.66346 v 5.250843 h -1.66346 z m 1.99678,0 h 1.66398 v 5.250843 h -1.66398 z m 1.99626,0 h 1.66346 v 5.250843 h -1.66346 z m 1.99574,0 h 1.66398 v 5.250843 h -1.66398 z m 1.99729,0 h 1.66347 v 5.250843 h -1.66347 z m 1.99575,0 h 1.66398 v 5.250843 h -1.66398 z m -26.43146,8.166427 h 9.53688 V 90.33329 h -9.53688 z m 14.45338,0 h 6.64662 v 9.84436 h -6.64662 z m 6.99544,0 h 6.64662 v 9.84436 h -6.64662 z m -6.99544,10.008691 h 1.66398 v 5.250843 h -1.66398 z m 1.99626,0 h 1.66346 v 5.250843 h -1.66346 z m 1.99678,0 h 1.66398 v 5.250843 h -1.66398 z m 1.99626,0 h 1.66346 v 5.250843 h -1.66346 z m 1.99574,0 h 1.66398 v 5.250843 h -1.66398 z m 1.99729,0 h 1.66347 v 5.250843 h -1.66347 z m 1.99575,0 h 1.66398 v 5.250843 h -1.66398 z m -26.43146,8.620146 h 9.53688 V 108.9611 h -9.53688 z m 14.45338,0.001 h 6.64662 v 9.844357 h -6.64662 z m 6.99544,0 h 6.64662 v 9.844357 h -6.64662 z m -6.99544,10.008687 h 1.66398 v 5.24981 h -1.66398 z m 1.99626,0 h 1.66346 v 5.24981 h -1.66346 z m 1.99678,0 h 1.66398 v 5.24981 h -1.66398 z m 1.99626,0 h 1.66346 v 5.24981 h -1.66346 z m 1.99574,0 h 1.66398 v 5.24981 h -1.66398 z m 1.99729,0 h 1.66347 v 5.24981 h -1.66347 z m 1.99575,0 h 1.66398 v 5.24981 h -1.66398 z m -26.43146,9.46661 h 9.53688 v 15.25953 h -9.53688 z m 14.45338,0.001 h 6.64662 v 9.8454 h -6.64662 z m 6.99544,0 h 6.64662 v 9.8454 h -6.64662 z m -6.99544,10.00869 h 1.66398 v 5.25084 h -1.66398 z m 1.99626,0 h 1.66346 v 5.25084 h -1.66346 z m 1.99678,0 h 1.66398 v 5.25084 h -1.66398 z m 1.99626,0 h 1.66346 v 5.25084 h -1.66346 z m 1.99574,0 h 1.66398 v 5.25084 h -1.66398 z m 1.99729,0 h 1.66347 v 5.25084 h -1.66347 z m 1.99575,0 h 1.66398 v 5.25084 h -1.66398 z m -26.43146,8.95811 h 9.53688 v 15.25954 h -9.53688 z m 14.45338,0 h 6.64662 v 9.84436 h -6.64662 z m 6.99544,0 h 6.64662 v 9.84436 h -6.64662 z m -6.99544,10.00869 h 1.66398 v 5.25085 h -1.66398 z m 1.99626,0 h 1.66346 v 5.25085 h -1.66346 z m 1.99678,0 h 1.66398 v 5.25085 h -1.66398 z m 1.99626,0 h 1.66346 v 5.25085 h -1.66346 z m 1.99574,0 h 1.66398 v 5.25085 h -1.66398 z m 1.99729,0 h 1.66347 v 5.25085 h -1.66347 z m 1.99575,0 h 1.66398 v 5.25085 h -1.66398 z m -11.97808,9.32967 h 6.64662 v 9.84436 h -6.64662 z m 6.99544,0 h 6.64662 v 9.84436 h -6.64662 z m -6.99544,10.0092 h 1.66398 v 5.25033 h -1.66398 z m 1.99626,0 h 1.66346 v 5.25033 h -1.66346 z m 1.99678,0 h 1.66398 v 5.25033 h -1.66398 z m 1.99626,0 h 1.66346 v 5.25033 h -1.66346 z m 1.99574,0 h 1.66398 v 5.25033 h -1.66398 z m 1.99729,0 h 1.66347 v 5.25033 h -1.66347 z m 1.99575,0 h 1.66398 v 5.25033 h -1.66398 z"
       id="path45"
       inkscape:label="build2" /><path
       style="fill:url(#linearGradient45);fill-opacity:1;stroke-width:1.90744"
       d="m -247.73656,-65.347513 c -0.21442,-0.13251 -4.69971,2.257633 -9.96735,5.310787 -5.26765,3.053152 -14.0058,8.07179 -19.41846,11.153324 -5.41268,3.081537 -11.09014,6.314071 -12.6168,7.183541 l -2.77554,1.581299 -0.13022,27.093953 c -0.0837,17.3929124 0.0452,27.09292 0.36173,27.09292 0.27124,0 4.6793,-2.498298 9.79475,-5.5515988 5.11546,-3.0533 9.55132,-5.5515991 9.85728,-5.5515991 0.40312,0 0.55552,24.8624969 0.55552,90.3376379 v 90.337119 h 6.05648 6.05596 v -51.98184 c 0,-28.59 0.13247,-51.981837 0.29404,-51.981837 0.36319,0 5.05368,2.751111 8.85527,5.193481 1.56264,1.00393 2.98209,1.684263 3.15433,1.512053 0.45941,-0.45935 0.38277,-151.445111 -0.077,-151.72924 z m -19.02572,24.990206 h 6.64611 v 9.845394 h -6.64611 z m 6.99648,0 h 6.6461 v 9.845394 h -6.6461 z m -26.61492,10e-4 h 9.5374 v 15.259534 h -9.5374 z m 19.61844,10.007658 h 1.66347 v 5.250843 h -1.66347 z m 1.99678,0 h 1.66398 v 5.250843 h -1.66398 z m 1.99626,0 h 1.66347 v 5.250843 h -1.66347 z m 1.99678,0 h 1.66295 v 5.250843 h -1.66295 z m 1.99626,0 h 1.66346 v 5.250843 h -1.66346 z m 1.99574,0 h 1.66398 v 5.250843 h -1.66398 z m 1.9973,0 h 1.66346 v 5.250843 h -1.66346 z m -31.59756,8.320423 h 9.5374 v 15.2595333 h -9.5374 z m 19.61844,0 h 6.64611 v 9.84436 h -6.64611 z m 6.99648,0 h 6.6461 v 9.84436 h -6.6461 z m -6.99648,10.008691 h 1.66347 v 5.2508423 h -1.66347 z m 1.99678,0 h 1.66398 v 5.2508423 h -1.66398 z m 1.99626,0 h 1.66347 v 5.2508423 h -1.66347 z m 1.99678,0 h 1.66295 v 5.2508423 h -1.66295 z m 1.99626,0 h 1.66346 v 5.2508423 h -1.66346 z m 1.99574,0 h 1.66398 v 5.2508423 h -1.66398 z m 1.9973,0 h 1.66346 v 5.2508423 h -1.66346 z m -4.98264,8.1659099 h 6.6461 V 5.991285 h -6.6461 z m -6.99648,5.167e-4 h 6.64611 V 5.991285 h -6.64611 z m 0,10.0092082 h 1.66347 v 5.2498092 h -1.66347 z m 1.99678,0 h 1.66398 v 5.2498092 h -1.66398 z m 1.99626,0 h 1.66347 v 5.2498092 h -1.66347 z m 1.99678,0 h 1.66295 v 5.2498092 h -1.66295 z m 1.99626,0 h 1.66346 v 5.2498092 h -1.66346 z m 1.99574,0 h 1.66398 v 5.2498092 h -1.66398 z m 1.9973,0 h 1.66346 v 5.2498092 h -1.66346 z m -4.98264,8.6196292 h 6.6461 v 9.845394 h -6.6461 z m -6.99648,10e-4 h 6.64611 v 9.844361 h -6.64611 z m 0,10.008692 h 1.66347 v 5.249808 h -1.66347 z m 1.99678,0 h 1.66398 v 5.249808 h -1.66398 z m 1.99626,0 h 1.66347 v 5.249808 h -1.66347 z m 1.99678,0 h 1.66295 v 5.249808 h -1.66295 z m 1.99626,0 h 1.66346 v 5.249808 h -1.66346 z m 1.99574,0 h 1.66398 v 5.249808 h -1.66398 z m 1.9973,0 h 1.66346 v 5.249808 h -1.66346 z m -11.97912,9.467639 h 6.64611 v 9.845394 h -6.64611 z m 6.99648,0 h 6.6461 v 9.845394 h -6.6461 z m -6.99648,10.009208 h 1.66347 v 5.250326 h -1.66347 z m 1.99678,0 h 1.66398 v 5.250326 h -1.66398 z m 1.99626,0 h 1.66347 v 5.250326 h -1.66347 z m 1.99678,0 h 1.66295 v 5.250326 h -1.66295 z m 1.99626,0 h 1.66346 v 5.250326 h -1.66346 z m 1.99574,0 h 1.66398 v 5.250326 h -1.66398 z m 1.9973,0 h 1.66346 v 5.250326 h -1.66346 z m -4.98264,8.956559 h 6.6461 v 9.845394 h -6.6461 z m -6.99648,0.001 h 6.64611 v 9.84436 h -6.64611 z m 0,10.009174 h 1.66347 v 5.249809 h -1.66347 z m 1.99678,0 h 1.66398 v 5.249809 h -1.66398 z m 1.99626,0 h 1.66347 v 5.249809 h -1.66347 z m 1.99678,0 h 1.66295 v 5.249809 h -1.66295 z m 1.99626,0 h 1.66346 v 5.249809 h -1.66346 z m 1.99574,0 h 1.66398 v 5.249809 h -1.66398 z m 1.9973,0 h 1.66346 v 5.249809 h -1.66346 z"
       id="path19"
       inkscape:label="build1" /><path
       style="fill:#012d5b;stroke-width:1.90744;fill-opacity:1"
       d="m -291.25317,226.51614 c -32.50452,-3.85946 -60.47877,-28.60336 -68.92753,-60.96806 -2.73979,-10.49535 -2.71749,-9.84965 -2.72747,-78.974239 -0.006,-37.541336 0.17778,-63.940407 0.44322,-63.841742 0.24884,0.09253 7.62334,6.953779 16.38778,15.247233 l 15.93534,15.07901 0.16289,49.267418 c 0.18236,55.18338 -0.0172,52.07559 3.93355,61.55946 5.98379,14.3678 18.03157,25.27559 32.52127,29.44406 3.89245,1.11981 4.71703,1.1615 22.96284,1.1615 h 18.92543 l 4.79443,-1.63111 c 7.26376,-2.47123 12.55737,-5.70072 18.20234,-11.10477 8.55145,-8.18648 13.0844,-16.45275 15.98619,-29.15237 0.70184,-3.07159 0.83193,-9.8346 0.99653,-51.80892 l 0.18921,-48.276163 7.65013,-7.238393 c 4.20757,-3.981119 11.26742,-10.701747 15.68859,-14.934732 4.42115,-4.232984 8.23541,-7.696336 8.47611,-7.696336 0.6289,0 0.55104,121.005724 -0.0824,128.163494 -1.04213,11.77463 -3.58454,20.97554 -8.58319,31.06236 -3.9036,7.87714 -8.56109,14.34314 -15.12124,20.99287 -12.00704,12.17105 -26.08662,19.66974 -43.14995,22.98135 -4.74209,0.92034 -38.31063,1.42246 -44.664,0.66808 z"
       id="path1"
       inkscape:label="u" /></g></svg>
